<svg xmlns="http://www.w3.org/2000/svg" width="484" height="432" viewBox="0 0 484 432">
    <defs>
        <filter id="Ellipse_797" width="383" height="382" x="0" y="0" filterUnits="userSpaceOnUse">
            <feOffset dy="13"/>
            <feGaussianBlur result="blur" stdDeviation="29.5"/>
            <feFlood flood-opacity=".078"/>
            <feComposite in2="blur" operator="in"/>
            <feComposite in="SourceGraphic"/>
        </filter>
        <filter id="Ellipse_798" width="322" height="322" x="162" y="110" filterUnits="userSpaceOnUse">
            <feOffset dy="13"/>
            <feGaussianBlur result="blur-2" stdDeviation="29.5"/>
            <feFlood flood-opacity=".078"/>
            <feComposite in2="blur-2" operator="in"/>
            <feComposite in="SourceGraphic"/>
        </filter>
        <style>
            .cls-1{fill:#fff}.cls-4{fill:#333e49}.cls-6{fill:#ffcbbe}.cls-7{fill:#eaac9d}.cls-9{fill:#5e54ac}.cls-11{fill:#23201e}.cls-14{fill:#ffbd86}.cls-15{fill:#ffa664}.cls-17{fill:#433f43}
        </style>
    </defs>
    <g id="Group_800" transform="translate(-835.5 -101.5)">
        <g filter="url(#Ellipse_797)" transform="translate(835.5 101.5)">
            <ellipse id="Ellipse_797-2" cx="103" cy="102.5" class="cls-1" rx="103" ry="102.5" transform="translate(88.5 75.5)"/>
        </g>
        <g id="profile" transform="translate(943.469 188.901)">
            <g id="Group_577" transform="translate(3.563 122.17)">
                <g id="Group_575">
                    <path id="Path_3286" fill="#524798" d="M221.7 373.581a55.65 55.65 0 0 0-51.132-33.681h-58.626a55.65 55.65 0 0 0-51.134 33.679 105.494 105.494 0 0 0 160.894 0z" transform="translate(-60.808 -339.903)"/>
                </g>
                <g id="Group_576" transform="translate(0 9.816)">
                    <path id="Path_3287" fill="#453d81" d="M221.7 387.583a55.847 55.847 0 0 0-19.582-23.862 105.525 105.525 0 0 1-140.53 22.136c-.269.571-.53 1.145-.78 1.727a105.494 105.494 0 0 0 160.894 0z" transform="translate(-60.808 -363.721)"/>
                </g>
            </g>
            <g id="Group_578" transform="translate(45.742 2.97)">
                <path id="Path_3288" d="M238.2 64.318l-9.323-8.864a17.333 17.333 0 0 0-17.522-3.849L177.861 62.99a21.693 21.693 0 0 0-14.712 20.54v15.521l1.649 4.82h75.614l1.648-4.82V73.32a12.423 12.423 0 0 0-3.86-9.002z" class="cls-4" transform="translate(-163.149 -50.682)"/>
            </g>
            <g id="Group_579" transform="translate(81.228 2.97)">
                <path id="Path_3289" fill="#1d2023" d="M288.812 64.318l-9.323-8.864a17.333 17.333 0 0 0-17.522-3.849l-12.718 4.323a17.329 17.329 0 0 1 10.489 4.709l9.322 8.863a12.421 12.421 0 0 1 3.863 9v25.367h18.1l1.648-4.82V73.32a12.422 12.422 0 0 0-3.863-9z" transform="translate(-249.249 -50.682)"/>
            </g>
            <g id="Group_580" transform="translate(119.059 56.992)">
                <path id="Path_3290" d="M344.119 190.277c-4.043 8.585-4.391 20 .684 22.39s13.653-5.148 17.7-13.734 1.431-13.713-3.645-16.1-10.696-1.141-14.739 7.444z" class="cls-6" transform="translate(-341.04 -181.76)"/>
            </g>
            <g id="Group_581" transform="translate(57.517 98.05)">
                <path id="Path_3291" d="M224.225 329.409h-9.652a22.854 22.854 0 0 1-22.854-22.854V281.38h55.36v25.176a22.854 22.854 0 0 1-22.854 22.853z" class="cls-7" transform="translate(-191.719 -281.38)"/>
            </g>
            <path id="Path_3292" fill="#df9380" d="M257.567 281.38v25.176a22.857 22.857 0 0 1-19.218 22.563 23.037 23.037 0 0 0 3.636.291h9.652a22.853 22.853 0 0 0 22.854-22.854V281.38z" transform="translate(-161.614 -183.33)"/>
            <g id="Group_582" transform="translate(45.741 44.172)">
                <path id="Path_3293" d="M234.893 150.653h-64.58a7.166 7.166 0 0 0-7.166 7.166v25.512a41.7 41.7 0 0 0 18.436 34.605l11.466 7.707a17.127 17.127 0 0 0 3.686 1.877 56.269 56.269 0 0 0 8.048-.129 41.148 41.148 0 0 0 8.576-2.556l10.263-6.9a41.7 41.7 0 0 0 18.436-34.605v-25.511a7.165 7.165 0 0 0-7.165-7.166z" class="cls-6" transform="translate(-163.147 -150.653)"/>
            </g>
            <g id="Group_583" transform="translate(79.33 44.171)">
                <path id="Path_3294" d="M278.238 150.652v32.678a41.7 41.7 0 0 1-18.438 34.605l-11.466 7.707a17.151 17.151 0 0 1-3.691 1.877 17.128 17.128 0 0 0 15.421-1.877l11.466-7.707a41.7 41.7 0 0 0 18.436-34.605v-25.512a7.166 7.166 0 0 0-7.166-7.166h-4.563z" class="cls-7" transform="translate(-244.645 -150.652)"/>
            </g>
            <g id="Group_584" transform="translate(119.059 56.992)">
                <path id="Path_3295" d="M344.119 190.277c-4.043 8.585-4.391 20 .684 22.39s13.653-5.148 17.7-13.734 1.431-13.713-3.645-16.1-10.696-1.141-14.739 7.444z" class="cls-7" transform="translate(-341.04 -181.76)"/>
            </g>
            <g id="Group_585" transform="translate(27.895 56.992)">
                <path id="Path_3296" d="M140.207 190.277c4.043 8.585 4.391 20-.685 22.39s-13.653-5.148-17.7-13.734-1.431-13.713 3.645-16.1 10.697-1.141 14.74 7.444z" class="cls-6" transform="translate(-119.845 -181.76)"/>
            </g>
            <g id="Group_586" transform="translate(61.585 64.105)">
                <circle id="Ellipse_659" cx="4.77" cy="4.77" r="4.77" class="cls-9"/>
            </g>
            <g id="Group_587" transform="translate(98.796 64.105)">
                <circle id="Ellipse_660" cx="4.77" cy="4.77" r="4.77" class="cls-9"/>
            </g>
            <g id="Group_588" transform="translate(70.78 88.15)">
                <path id="Path_3297" fill="#e28086" d="M238.113 269.425a16.6 16.6 0 0 1-13.662-7.182 3.116 3.116 0 1 1 5.13-3.537 10.355 10.355 0 0 0 17.065 0 3.116 3.116 0 1 1 5.13 3.537 16.6 16.6 0 0 1-13.663 7.182z" transform="translate(-223.9 -257.359)"/>
            </g>
        </g>
        <g filter="url(#Ellipse_798)" transform="translate(835.5 101.5)">
            <circle id="Ellipse_798-2" cx="72.5" cy="72.5" r="72.5" class="cls-1" transform="translate(250.5 185.5)"/>
        </g>
        <g id="woman" transform="translate(1103.928 293.256)">
            <path id="Path_3298" d="M113.987 75.189v-9.962c-11.139-9.072-9.677-31.183-9.677-31.183 17.115-4.629 25.91-15.107 25.91-15.107 6.055 11.855 16.288 15.248 16.288 15.248s1.293 21.8-9.646 30.918l.054.042v10.044s10.361 5.43 20.191 10.944C160.858 63.128 167.329 0 125.333 0c-42.07 0-35.5 63.349-31.754 86.253 9.893-5.555 20.407-11.065 20.407-11.065zm0 0" class="cls-4" transform="translate(-70.422 -.001)"/>
            <path id="Path_3299" d="M319.566 327.059c-10.036-5.65-20.911-11.348-20.911-11.348v5.141s10.361 5.43 20.191 10.944c.234-1.432.479-3.019.72-4.737zm0 0" class="cls-11" transform="translate(-232.163 -245.664)"/>
            <path id="Path_3300" d="M100.808 331.917c9.893-5.555 20.407-11.065 20.407-11.065v-5.141s-11.033 5.781-21.129 11.47c.244 1.719.489 3.306.722 4.736zm0 0" class="cls-11" transform="translate(-77.65 -245.664)"/>
            <path id="Path_3301" fill="#ff94d4" d="M66.258 338.883S96.3 354.624 102.6 359.721c5.074 4.1 6.586 12.984 6.982 16.294.081.68-29.23 26.4-56.058 26.4S-.079 376.7 0 376.015c.4-3.31 1.908-12.192 6.982-16.294 6.3-5.1 36.345-20.839 36.345-20.839l8.2 15.962a3.669 3.669 0 0 0 6.529 0zm0 0" transform="translate(.235 -263.695)"/>
            <path id="Path_3302" fill="#ff73c6" d="M.622 493.363c-.218 1.147-.6 3.442-.683 4.165-.081.681 18.422 24.248 53.394 25.129s56.59-23.878 56.508-24.558c-.087-.723-.309-3.589-.527-4.736zm0 0" transform="translate(.061 -383.9)"/>
            <path id="Path_3303" d="M210.048 319.616l8.2-15.962v-10.045a18.811 18.811 0 0 1-22.927 0v10.043l8.2 15.962a3.669 3.669 0 0 0 6.527.002zm0 0" class="cls-14" transform="translate(-151.755 -228.466)"/>
            <path id="Path_3304" d="M195.316 293.611v4.215a18.8 18.8 0 0 0 22.928-.169v-4.048a18.812 18.812 0 0 1-22.928 0zm0 0" class="cls-15" transform="translate(-151.751 -228.466)"/>
            <path id="Path_3305" fill="#fed2a4" d="M151.481 100.459s-2.309 34.921 20.982 35 21.215-34.859 21.215-34.859-10.233-3.392-16.288-15.247c0 0-8.8 10.477-25.909 15.106zm0 0" transform="translate(-117.593 -66.415)"/>
            <path id="Path_3306" d="M172.462 185.455c-17.942-.06-20.692-20.793-21.009-30.314-.175 4.425-.562 34.378 21.009 34.449 22.3.074 21.345-31.944 21.224-34.668-.323 9.346-3.053 30.593-21.224 30.533zm0 0" class="cls-14" transform="translate(-117.592 -120.549)"/>
            <path id="Path_3307" d="M233.819 182.652q.268 0 .546-.011a1.723 1.723 0 1 0-.143-3.443c-.865.037-2.389-.017-2.864-.772-.609-.968.087-3.257.748-4.5a1.723 1.723 0 0 0-3.035-1.63c-.266.494-2.542 4.91-.635 7.957.997 1.593 2.807 2.399 5.383 2.399zm0 0" class="cls-15" transform="translate(-176.936 -133.363)"/>
            <path id="Path_3308" d="M191.056 155.812c0-1.982-1.252-3.534-2.85-3.534s-2.851 1.552-2.851 3.534 1.252 3.534 2.851 3.534 2.85-1.552 2.85-3.534zm0 0" class="cls-17" transform="translate(-144.001 -118.491)"/>
            <path id="Path_3309" d="M285.776 159.346c1.6 0 2.85-1.552 2.85-3.534s-1.252-3.535-2.85-3.535-2.85 1.553-2.85 3.535 1.253 3.534 2.85 3.534zm0 0" class="cls-17" transform="translate(-219.923 -118.492)"/>
            <path id="Path_3310" fill="#ff646f" d="M203.638 229.8a1.724 1.724 0 0 0-.5 2.386c.14.214 3.507 5.242 9.508 5.242s9.367-5.028 9.508-5.242a1.723 1.723 0 1 0-2.882-1.89c-.024.037-2.466 3.686-6.627 3.686-4.112 0-6.606-3.656-6.627-3.686a1.722 1.722 0 0 0-2.38-.496zm0 0" transform="translate(-157.622 -178.596)"/>
        </g>
    </g>
</svg>
