<svg xmlns="http://www.w3.org/2000/svg" width="335" height="361" viewBox="0 0 335 361">
    <defs>
        <filter id="Rectangle_1886" width="314" height="305" x="0" y="0" filterUnits="userSpaceOnUse">
            <feOffset dy="14"/>
            <feGaussianBlur result="blur" stdDeviation="18"/>
            <feFlood flood-opacity=".161"/>
            <feComposite in2="blur" operator="in"/>
            <feComposite in="SourceGraphic"/>
        </filter>
        <filter id="Rectangle_1887" width="193" height="193" x="142" y="168" filterUnits="userSpaceOnUse">
            <feOffset dy="14"/>
            <feGaussianBlur result="blur-2" stdDeviation="18"/>
            <feFlood flood-opacity=".161"/>
            <feComposite in2="blur-2" operator="in"/>
            <feComposite in="SourceGraphic"/>
        </filter>
        <style>
            .cls-1{fill:#fff}.cls-3{fill:#3f3d56}.cls-4{fill:#444584}.cls-5{fill:#e6e6e6}.cls-6{fill:#ffb8b8}.cls-7{fill:#2f2e41}.cls-8{fill:#ffb9b9}.cls-9{fill:#575a89}
        </style>
    </defs>
    <g id="Group_801" transform="translate(-51 -582)">
        <g id="Group_794">
            <g filter="url(#Rectangle_1886)" transform="translate(51 582)">
                <rect id="Rectangle_1886-2" width="206" height="197" class="cls-1" rx="11" transform="translate(54 40)"/>
            </g>
            <g id="Group_627" transform="translate(11.754 -18.368)">
                <rect id="Rectangle_1895" width="183" height="175" fill="#7a81ea" opacity="0.1" rx="9" transform="translate(105.246 651.368)"/>
                <g id="Group_623" transform="translate(120.691 682.242)">
                    <path id="Path_3734" d="M358.352 183.82h-37.84a.7.7 0 0 1-.7-.7v-9.386a.7.7 0 0 1 .7-.7h37.839a.7.7 0 0 1 .7.7v9.386a.7.7 0 0 1-.699.7zm-37.839-10.508a.421.421 0 0 0-.42.42v9.386a.421.421 0 0 0 .42.42h37.839a.421.421 0 0 0 .42-.42v-9.386a.421.421 0 0 0-.42-.42z" class="cls-3" transform="translate(-287.616 -159.113)"/>
                    <circle id="Ellipse_729" cx="2.854" cy="2.854" r="2.854" class="cls-4" transform="translate(35.922 16.098)"/>
                    <path id="Path_3735" d="M400.233 192.745a.476.476 0 0 0 0 .951h22.427a.476.476 0 1 0 0-.951z" class="cls-5" transform="translate(-354.865 -175.696)"/>
                    <path id="Path_3736" d="M400.233 210.718a.476.476 0 0 0 0 .951h9.651a.476.476 0 0 0 0-.951z" class="cls-5" transform="translate(-354.865 -190.814)"/>
                    <path id="Path_3737" d="M366.258 351.437h-16.817a.7.7 0 0 1-.7-.7v-17.516a.7.7 0 0 1 .7-.7h16.817a.7.7 0 0 1 .7.7v17.515a.7.7 0 0 1-.7.701zM349.441 332.8a.421.421 0 0 0-.42.42v17.515a.421.421 0 0 0 .42.42h16.817a.421.421 0 0 0 .42-.42v-17.514a.421.421 0 0 0-.42-.42z" class="cls-3" transform="translate(-311.949 -293.273)"/>
                    <path id="Path_3738" d="M373.2 355.263a.476.476 0 1 0 0 .951h9.651a.476.476 0 1 0 0-.951z" class="cls-5" transform="translate(-332.121 -312.403)"/>
                    <path id="Path_3739" d="M373.2 372.911a.476.476 0 1 0 0 .952h9.651a.476.476 0 0 0 0-.952z" class="cls-5" transform="translate(-332.121 -327.248)"/>
                    <path id="Path_3740" d="M390.237 397.164a2.995 2.995 0 1 1 2.995-2.995 2.995 2.995 0 0 1-2.995 2.995z" class="cls-4" transform="translate(-344.337 -342.611)"/>
                    <path id="Path_3741" d="M628.8 85.393h16.817a.7.7 0 0 1 .7.7v17.515a.7.7 0 0 1-.7.7H628.8a.7.7 0 0 1-.7-.7V86.094a.7.7 0 0 1 .7-.701zm16.817 18.636a.421.421 0 0 0 .42-.42V86.094a.421.421 0 0 0-.42-.42H628.8a.421.421 0 0 0-.42.42v17.515a.421.421 0 0 0 .42.42z" class="cls-3" transform="translate(-546.943 -85.393)"/>
                    <path id="Path_3742" d="M662.208 176.718a.476.476 0 1 0 0-.951h-9.651a.476.476 0 0 0 0 .951z" class="cls-5" transform="translate(-567.115 -161.414)"/>
                    <path id="Path_3743" d="M662.208 159.07a.476.476 0 1 0 0-.951h-9.651a.476.476 0 0 0 0 .951z" class="cls-5" transform="translate(-567.115 -146.568)"/>
                    <path id="Path_3744" d="M669.6 108.135a2.995 2.995 0 1 1-2.994 2.995 2.994 2.994 0 0 1 2.994-2.995z" class="cls-4" transform="translate(-579.331 -104.523)"/>
                    <path id="Path_3745" d="M319.333 284.952a23.975 23.975 0 0 1 10.149-4.588 23.627 23.627 0 0 1 11.2.576 23.9 23.9 0 0 1 5.227 2.265 30.427 30.427 0 0 1 4.65 3.465c1.477 1.294 2.905 2.646 4.447 3.865a24.914 24.914 0 0 0 15.5 5.453q.7 0 1.4-.038c.252-.014.254-.408 0-.394a24.512 24.512 0 0 1-16.024-4.842c-1.6-1.195-3.057-2.561-4.547-3.885a35.169 35.169 0 0 0-4.565-3.563 24.118 24.118 0 0 0-26.628.607c-.37.257-.731.526-1.086.8-.2.156.081.432.279.278z" class="cls-3" transform="translate(-286.921 -248.716)"/>
                    <circle id="Ellipse_730" cx="2.046" cy="2.046" r="2.046" class="cls-3" transform="translate(30.157 34.046)"/>
                    <circle id="Ellipse_731" cx="2.046" cy="2.046" r="2.046" class="cls-3" transform="translate(106.29 61.218)"/>
                    <path id="Path_3746" d="M686.163 310.886H652.77a.7.7 0 0 1-.7-.7v-17.375a.7.7 0 0 1 .7-.7h33.392a.7.7 0 0 1 .7.7v17.375a.7.7 0 0 1-.699.7zm-33.392-18.5a.421.421 0 0 0-.42.42v17.375a.421.421 0 0 0 .42.42h33.392a.421.421 0 0 0 .42-.42v-17.37a.421.421 0 0 0-.42-.42z" class="cls-3" transform="translate(-567.105 -259.28)"/>
                    <circle id="Ellipse_732" cx="2.854" cy="2.854" r="2.854" class="cls-4" transform="translate(88.41 36.131)"/>
                    <path id="Path_3747" d="M730.726 318.883a.476.476 0 0 0 0 .952h17.981a.476.476 0 0 0 0-.952z" class="cls-5" transform="translate(-632.87 -281.801)"/>
                    <path id="Path_3748" d="M730.726 336.856a.476.476 0 0 0 0 .952h9.65a.476.476 0 1 0 0-.952z" class="cls-5" transform="translate(-632.87 -296.919)"/>
                    <path id="Path_3749" d="M674.476 365.589c-.362 0-.656.213-.656.476s.295.476.656.476h26.5c.362 0 .656-.213.656-.476s-.294-.476-.656-.476z" class="cls-5" transform="translate(-585.4 -321.089)"/>
                    <path id="Path_3750" d="M674.476 383.562c-.362 0-.656.213-.656.476s.295.476.656.476h26.5c.362 0 .656-.213.656-.476s-.294-.476-.656-.476z" class="cls-5" transform="translate(-585.4 -336.208)"/>
                    <path id="Path_3751" d="M637.982 482.226c1.884-.817 3.987-.1 5.763.648.915.388 1.819.8 2.766 1.108a15.76 15.76 0 0 0 2.438.578 17.231 17.231 0 0 0 5.009.031 17.49 17.49 0 0 0 4.834-1.406 16.343 16.343 0 0 0 4.184-2.735q.238-.215.466-.439c.181-.178-.1-.456-.278-.278a15.884 15.884 0 0 1-4.081 2.881 17.1 17.1 0 0 1-4.742 1.523 16.744 16.744 0 0 1-5 .086 15.72 15.72 0 0 1-2.447-.532 25.9 25.9 0 0 1-2.7-1.049c-1.792-.77-3.784-1.523-5.753-.993a4.807 4.807 0 0 0-.661.236c-.229.101-.029.441.202.341z" class="cls-3" transform="translate(-555.001 -417.057)"/>
                    <path id="Path_3752" d="M551.437 479.382h-15.776l3.713-6.431a.758.758 0 0 1 1.313 0l1.586 2.747 2.7-4.671a.949.949 0 0 1 1.644 0z" class="cls-4" transform="translate(-469.184 -409.383)"/>
                    <path id="Path_3753" d="M542.3 469h-16.813a.7.7 0 0 1-.7-.7v-9.39a.7.7 0 0 1 .7-.7H542.3a.7.7 0 0 1 .7.7v9.39a.7.7 0 0 1-.7.7zm-16.817-10.507a.421.421 0 0 0-.42.42v9.387a.421.421 0 0 0 .42.42H542.3a.421.421 0 0 0 .42-.42v-9.39a.421.421 0 0 0-.42-.42z" class="cls-3" transform="translate(-460.037 -398.999)"/>
                    <path id="Path_3754" d="M813.09 412.768l-3 1.522c-1.07.543-2.1.45-2.5-.682a1.982 1.982 0 0 1 1.508-2.6l2.849-.532 12.2-4.048 7.391-5.241 2.71 4.317-8.541 4.609z" class="cls-6" transform="translate(-697.837 -351.032)"/>
                    <path id="Path_3755" d="M801.66 681.9l-2.294-.382.255-4.332h2.421z" class="cls-6" transform="translate(-672.413 -569.638)"/>
                    <path id="Path_3756" d="M933.076 657.027l-2.22.692-1.725-3.982 2.161-1.091z" class="cls-6" transform="translate(-781.569 -548.994)"/>
                    <path id="Path_3757" d="M928.34 523.062l-2.8 1.147-13.378-17.584-4.2 20.642-2.8-.51c-1.8-17.8-3.264-35.947-1.465-44.532l10.384-.446 4.714 15.035 2.294 10.193z" class="cls-7" transform="translate(-778.07 -418.826)"/>
                    <path id="Path_3758" d="M900.949 786.445a2.012 2.012 0 0 1-1.247-.133l-1.363-.613c-1.142-.059-1.92.169-2.556-.661a1.667 1.667 0 0 1-.195-1.681 1.679 1.679 0 0 1 1.371-1l1.871-1.179.1.884a3.257 3.257 0 0 0 2.947-.2l.587 2.056a2.012 2.012 0 0 1-1.513 2.521z" class="cls-7" transform="translate(-771.828 -670.678)"/>
                    <path id="Path_3759" d="M1044.571 763.256a2.012 2.012 0 0 1-1.223.28l-1.488-.138c-1.1.316-1.761.783-2.633.2a1.667 1.667 0 0 1-.73-1.526 1.678 1.678 0 0 1 .973-1.389l1.387-1.723.38.8a3.256 3.256 0 0 0 2.723-1.143l1.223 1.753a2.013 2.013 0 0 1-.613 2.876z" class="cls-7" transform="translate(-892.157 -651.705)"/>
                    <circle id="Ellipse_733" cx="4.587" cy="4.587" r="4.587" class="cls-6" transform="translate(127.59 35.686)"/>
                    <path id="Path_3760" d="M831.793 276.76l-5.989-1.274-.764-4.969 4.2-.892z" class="cls-6" transform="translate(-694.009 -226.804)"/>
                    <path id="Path_3761" d="M917.529 399.981h-10.7l2.413-6.057a6.164 6.164 0 0 1 1.972-4.952l1.6-4.027c2.591-1.706 4.545-1.578 6.626.637 2.466 3.494.76 8.744-1.911 14.399z" class="cls-4" transform="translate(-781.402 -336.391)"/>
                    <path id="Path_3762" d="M923.865 451.419l-.3 3.348c-.109 1.195-.736 2.02-1.906 1.753a1.982 1.982 0 0 1-1.4-2.66l1.064-2.7 3.058-12.487-.51-9.047h5.1l-.637 9.684z" class="cls-6" transform="translate(-792.579 -374.96)"/>
                    <path id="Path_3763" d="M947.186 397.508h-5.861l.411-3.823a2.652 2.652 0 0 1 2.518-2.541 2.653 2.653 0 0 1 2.783 2.545z" class="cls-4" transform="translate(-810.421 -342.582)"/>
                    <circle id="Ellipse_734" cx="1.724" cy="1.724" r="1.724" class="cls-7" transform="translate(136.13 32.108)"/>
                    <path id="Path_3764" d="M972.749 287.141a1.723 1.723 0 0 1 1.723-1.611c-.036 0-.071-.01-.107-.012a1.724 1.724 0 0 0-.221 3.441h.108a1.723 1.723 0 0 1-1.503-1.818z" class="cls-7" transform="translate(-836.671 -253.731)"/>
                    <path id="Path_3765" d="M921.483 297.9c-1.538-1.276-5.948.346-6.233 1.2-2.079.283-3.654 1.5-3.654 3.654a6.238 6.238 0 0 0 4.162 0c2.423 1.974 2.589 4.456 1.115 7.307l1.813.036 2.247-3.284.108 3.331 4.155-.083v-4.773a9.982 9.982 0 0 0-1.066-4.572 9.174 9.174 0 0 0-2.647-2.816z" class="cls-7" transform="translate(-785.415 -263.75)"/>
                    <ellipse id="Ellipse_735" cx=".824" cy="1.154" class="cls-6" rx=".824" ry="1.154" transform="translate(131.374 40.272)"/>
                    <path id="Path_3766" d="M296.282 318.767s.5-8.59 3.073-6.638-1.125 7.435-1.125 7.435z" class="cls-8" transform="translate(-267.823 -275.876)"/>
                    <path id="Path_3767" d="M225.645 515.9s5.723 6.425 2.521 6.867-4.462-6.053-4.462-6.053z" class="cls-8" transform="translate(-206.772 -447.528)"/>
                    <path id="Path_3768" d="M165.917 324.215a3.769 3.769 0 0 1 2.773 3.121l1.821 12.958 2.552 10.336s1.276 1.149.766 1.787.638 3.318.638 3.318l-3.19 1.021s-.383-2.68-1.021-2.807c-.561-.112-6.838-16.88-8.351-20.943l-.327-.879s.255-8.55 4.339-7.912z" class="cls-9" transform="translate(-154.512 -286.257)"/>
                    <path id="Path_3769" d="M179.641 749.885l1.96 3.472c1.518 3.24.169 3.828-3.552 2.222l-.848-4.1z" class="cls-8" transform="translate(-167.654 -644.352)"/>
                    <path id="Path_3770" d="M175.759 772.115s.93-1.515 1.267-1.261 1.724 1.352 1.724 1.352l1.807 1.731s6.107.646 2.226 2.785-6.025.366-6.025.366-5.435.283-5.347-1.234 1.841-3.915 1.841-3.915 2.209 1.481 2.507.176z" class="cls-7" transform="translate(-162.783 -661.967)"/>
                    <path id="Path_3771" d="M137.815 487.488l1.837 22.229s.061 13.288 2.021 15.86 2.021 3.858 2.021 3.858l4.042-2.082s-2.082-3.469-1.653-4a2.961 2.961 0 0 0 .551-1.143l-1.1-13.717 2.082-23.882z" class="cls-7" transform="translate(-134.523 -421.207)"/>
                    <path id="Path_3773" d="M22.667 661.9l-1.715 4.531-3.888-1.631 2.051-3.4z" class="cls-8" transform="translate(-14.354 -556.364)"/>
                    <path id="Path_3774" d="M122.54 762.28s1.458-.912 1.641-.547.911 1.914.911 1.914l.82 2.279s5.013 3.19.729 3.372-5.378-2.279-5.378-2.279-4.831-2.1-4.1-3.372 3.281-2.6 3.281-2.6 1.275 2.236 2.096 1.233z" class="cls-7" transform="translate(-117.087 -653.742)"/>
                    <path id="Path_3775" d="M153.369 499.874l.98 20.453s-8.94 18.493-9.92 18.983a2.46 2.46 0 0 0-1.225 1.47l-5.389-1.347 2.449-3.919 5.389-13.1a2.161 2.161 0 0 0 1.1-1.592c.245-1.225.735-1.225-.49-1.47a1.521 1.521 0 0 1-1.225-1.47L141 499.262z" class="cls-7" transform="translate(-134.523 -433.533)"/>
                    <circle id="Ellipse_736" cx="4.899" cy="4.899" r="4.899" class="cls-8" transform="rotate(-80.783 24.04 11.521)"/>
                    <path id="Path_3776" d="M175.912 272.159s-.367 6.246-.857 6.858 5.144.49 5.144.49-.367-5.266 0-5.756-4.287-1.592-4.287-1.592z" class="cls-8" transform="translate(-165.823 -242.497)"/>
                    <path id="Path_3777" d="M151.142 336.042s-13.839-1.224-16.411 0c0 0 .947-3.511.7-3.878-.178-.268.313-10.271.159-16.041-.087-3.256-.839-6.435 1.345-8.853a6.8 6.8 0 0 1 2.447-1.847s-.245-2.327.98-2.449c0 0 4.655-.491 6.369.98a5.032 5.032 0 0 1 .929 3.116 38.429 38.429 0 0 0 .23 13.6c.048.3.1.611.152.918.828 4.761 2.077 9.67 3.1 14.454z" class="cls-9" transform="translate(-131.929 -268.353)"/>
                    <path id="Path_3778" d="M174.925 232.127a6.521 6.521 0 0 1 1.23.17 3.114 3.114 0 0 0 3.328-2.322 1.781 1.781 0 0 1 .17-.555 1.1 1.1 0 0 1 1.168-.355 9.021 9.021 0 0 0 1.262.307 1.932 1.932 0 0 0 1.667-.944 3.2 3.2 0 0 0 .409-1.933l-.321.336a1.628 1.628 0 0 1-.145-.885 1.027 1.027 0 0 0-.973.249c-.283.03-.069-.524-.279-.716a.486.486 0 0 0-.342-.064 2.723 2.723 0 0 1-1.562-.825 6.638 6.638 0 0 0-2.8-1.279 3.689 3.689 0 0 0-2.045.1 4.37 4.37 0 0 0-1.381.98 8.432 8.432 0 0 0-2.321 3.443 5.8 5.8 0 0 0-.028 3.361c.169.57.678 2.524 1.424 2.57.935.059.372-1.565 1.539-1.638z" class="cls-7" transform="translate(-163.047 -201.328)"/>
                    <path id="Path_3779" d="M186.488 328.181l1.755.188s1.723 3.343 1.6 4.04-.4.274.378 1.389 2.976 4 3.248 4.422 7.7-5.244 7.239-6.943a15.847 15.847 0 0 0 3.351 1.907s-7.656 10.04-8.722 11.325-1.925 1.021-3.391.259-8.883-8.361-8.883-8.361z" class="cls-9" transform="translate(-172.583 -289.622)"/>
                    <path id="Path_3780" d="M186.251 385.615l-6.1-6.1 1.544-.5 4.4 5.686c.051.299.105.607.156.914z" opacity="0.1" transform="translate(-170.135 -332.379)"/>
                </g>
            </g>
        </g>
        <g filter="url(#Rectangle_1887)" transform="translate(51 582)">
            <rect id="Rectangle_1887-2" width="85" height="85" class="cls-1" rx="9" transform="translate(196 208)"/>
        </g>
        <g id="growth" transform="translate(258 800.997)">
            <path id="Path_4416" fill="#f6e266" d="M39.545 352.988v14.137h10.089v-14.137a1.248 1.248 0 0 0-1.248-1.248h-7.593a1.248 1.248 0 0 0-1.248 1.248z" transform="translate(-34.753 -309.115)"/>
            <path id="Path_4417" fill="#e49542" d="M156.1 303.036v20.19h10.089v-20.19a1.248 1.248 0 0 0-1.248-1.248h-7.592a1.249 1.249 0 0 0-1.249 1.248z" transform="translate(-137.181 -265.216)"/>
            <path id="Path_4418" fill="#9dc6fb" d="M272.65 240.6v27.757h10.089V240.6a1.248 1.248 0 0 0-1.248-1.248H273.9a1.249 1.249 0 0 0-1.25 1.248z" transform="translate(-239.609 -210.344)"/>
            <path id="Path_4419" fill="#c8ea73" d="M389.2 198.971v32.8h10.089v-32.8a1.248 1.248 0 0 0-1.248-1.248h-7.592a1.249 1.249 0 0 0-1.249 1.248z" transform="translate(-342.038 -173.762)"/>
            <path id="Path_4420" fill="#80b4fb" d="M272.65 332.606V346h10.089v-18.3a87.883 87.883 0 0 1-10.089 4.906z" transform="translate(-239.609 -287.992)"/>
            <path id="Path_4421" fill="#e28424" d="M163.9 381.755c-2.629.874-5.239 1.618-7.806 2.238v8.816h10.089v-11.844q-1.125.406-2.283.79z" transform="translate(-137.181 -334.798)"/>
            <path id="Path_4422" fill="#f1d333" d="M39.545 414.528v6.617h10.089v-7.936a80 80 0 0 1-10.089 1.319z" transform="translate(-34.753 -363.134)"/>
            <path id="Path_4423" fill="#b7e445" d="M389.2 246.512v20.768h10.089v-29.154a53.347 53.347 0 0 1-10.089 8.386z" transform="translate(-342.038 -209.269)"/>
            <path id="Path_4424" fill="#4073c8" d="M0 481.486v-1.539a1.248 1.248 0 0 1 1.248-1.247H60.8a1.248 1.248 0 0 1 1.248 1.248v1.539a1.248 1.248 0 0 1-1.248 1.248H1.248A1.248 1.248 0 0 1 0 481.486z" transform="translate(0 -420.688)"/>
            <path id="Path_4425" fill="#dd5790" d="M89.074 0h-8.84a1.248 1.248 0 0 0-1.248 1.248v1.539a1.248 1.248 0 0 0 1.248 1.248H84.2L73.61 14.629h-8.37a2.018 2.018 0 0 0-1.487.654L51.867 28.249H39.752A1.248 1.248 0 0 0 38.5 29.5v1.539a1.248 1.248 0 0 0 1.248 1.248h13a2.018 2.018 0 0 0 1.487-.654l11.892-12.969h8.318a2.018 2.018 0 0 0 1.427-.591L87.057 6.889v3.969a1.248 1.248 0 0 0 1.248 1.248h1.539a1.248 1.248 0 0 0 1.248-1.248v-8.84A2.018 2.018 0 0 0 89.074 0z" transform="translate(-33.838)"/>
        </g>
    </g>
</svg>
