<svg xmlns="http://www.w3.org/2000/svg" width="122.108" height="40.817" viewBox="0 0 122.108 40.817">
    <g>
        <g>
            <g>
                <path d="M112.384 0H8.612C8.3 0 7.99.01 7.675.015A13.485 13.485 0 0 0 5.63.2a6.8 6.8 0 0 0-1.94.64 6.569 6.569 0 0 0-1.652 1.2 6.386 6.386 0 0 0-1.2 1.654A6.736 6.736 0 0 0 .2 5.634a13.258 13.258 0 0 0-.185 2.043C.006 7.99 0 8.3 0 8.617V32.2c0 .317.006.624.015.941A13.258 13.258 0 0 0 .2 35.187a6.722 6.722 0 0 0 .636 1.943 6.334 6.334 0 0 0 1.2 1.647 6.4 6.4 0 0 0 1.652 1.2 6.838 6.838 0 0 0 1.94.644 13.729 13.729 0 0 0 2.045.18c.315.007.625.011.938.011H113.49c.311 0 .63 0 .941-.011a13.55 13.55 0 0 0 2.041-.18 6.943 6.943 0 0 0 1.947-.644 6.406 6.406 0 0 0 1.65-1.2 6.525 6.525 0 0 0 1.206-1.647 6.739 6.739 0 0 0 .632-1.943 13.781 13.781 0 0 0 .189-2.043v-.941c.008-.371.008-.739.008-1.116V9.731c0-.374 0-.744-.008-1.114v-.94a13.781 13.781 0 0 0-.189-2.043 6.752 6.752 0 0 0-.632-1.942 6.6 6.6 0 0 0-2.856-2.857A6.906 6.906 0 0 0 116.472.2a13.311 13.311 0 0 0-2.041-.18C114.12.01 113.8 0 113.49 0h-1.106z"/>
                <path fill="#fff" d="M8.6 39.906c-.311 0-.614 0-.923-.011a12.947 12.947 0 0 1-1.907-.166 6 6 0 0 1-1.691-.559 5.516 5.516 0 0 1-1.426-1.037 5.429 5.429 0 0 1-1.041-1.425 5.839 5.839 0 0 1-.554-1.691 12.667 12.667 0 0 1-.17-1.917c-.006-.215-.015-.932-.015-.932V8.6s.009-.706.015-.913a12.623 12.623 0 0 1 .169-1.91 5.873 5.873 0 0 1 .555-1.7 5.483 5.483 0 0 1 1.035-1.424A5.679 5.679 0 0 1 4.078 1.61a5.942 5.942 0 0 1 1.687-.555A12.843 12.843 0 0 1 7.679.887L8.6.875h104.867l.932.013a12.638 12.638 0 0 1 1.9.166 6.06 6.06 0 0 1 1.701.559 5.708 5.708 0 0 1 2.464 2.469 5.881 5.881 0 0 1 .546 1.683 13.257 13.257 0 0 1 .177 1.926v.908c.008.383.008.747.008 1.114v21.356c0 .371 0 .732-.008 1.1v.949a13 13 0 0 1-.174 1.891 5.857 5.857 0 0 1-.551 1.7 5.592 5.592 0 0 1-1.036 1.414A5.524 5.524 0 0 1 118 39.168a5.981 5.981 0 0 1-1.7.561 12.8 12.8 0 0 1-1.907.166c-.3.007-.612.011-.916.011h-1.106z" transform="translate(.018 .018)"/>
            </g>
            <g>
                <g>
                    <g>
                        <path d="M25.311 20.024a5.251 5.251 0 0 1 2.5-4.406 5.375 5.375 0 0 0-4.235-2.29c-1.782-.187-3.509 1.066-4.417 1.066-.926 0-2.324-1.048-3.829-1.017a5.64 5.64 0 0 0-4.746 2.895c-2.052 3.553-.521 8.775 1.444 11.647.984 1.406 2.133 2.977 3.637 2.922 1.472-.061 2.022-.939 3.8-.939 1.76 0 2.276.939 3.811.9 1.579-.026 2.574-1.413 3.524-2.832a11.632 11.632 0 0 0 1.611-3.282 5.074 5.074 0 0 1-3.1-4.664z" transform="translate(9.805 8.007) translate(-9.609 -7.735)"/>
                        <path d="M22.225 11.551a5.17 5.17 0 0 0 1.183-3.7A5.261 5.261 0 0 0 20 9.608a4.92 4.92 0 0 0-1.214 3.567 4.35 4.35 0 0 0 3.439-1.624z" transform="translate(9.805 8.007) translate(-9.422 -7.847)"/>
                    </g>
                </g>
                <g>
                    <path d="M42.463 27.325h-4.83l-1.16 3.425h-2.046L39 18.078h2.126L45.7 30.75h-2.078zm-4.33-1.58h3.829l-1.887-5.559h-.053z" transform="translate(9.805 8.007) translate(25.325 10.229) translate(-34.427 -17.867)"/>
                    <path d="M55.333 26.064c0 2.871-1.537 4.715-3.855 4.715a3.132 3.132 0 0 1-2.907-1.616h-.044v4.576h-1.9V21.444h1.836v1.537h.037a3.277 3.277 0 0 1 2.942-1.633c2.346 0 3.891 1.852 3.891 4.716zm-1.949 0c0-1.87-.967-3.1-2.441-3.1-1.449 0-2.423 1.256-2.423 3.1 0 1.861.975 3.108 2.423 3.108 1.475 0 2.441-1.221 2.441-3.108z" transform="translate(9.805 8.007) translate(25.325 10.229) translate(-34.178 -17.8)"/>
                    <path d="M65.3 26.064c0 2.871-1.537 4.715-3.856 4.715a3.132 3.132 0 0 1-2.907-1.616h-.044v4.576H56.6V21.444h1.836v1.537h.035a3.277 3.277 0 0 1 2.942-1.633c2.34 0 3.887 1.852 3.887 4.716zm-1.95 0c0-1.87-.967-3.1-2.441-3.1-1.449 0-2.424 1.256-2.424 3.1 0 1.861.975 3.108 2.424 3.108 1.475 0 2.441-1.221 2.441-3.108z" transform="translate(9.805 8.007) translate(25.325 10.229) translate(-33.974 -17.8)"/>
                    <path d="M71.748 27.223c.141 1.257 1.361 2.082 3.029 2.082 1.6 0 2.748-.825 2.748-1.958 0-.984-.694-1.572-2.336-1.976l-1.642-.4c-2.327-.562-3.407-1.65-3.407-3.416 0-2.186 1.905-3.688 4.61-3.688 2.679 0 4.514 1.5 4.576 3.688h-1.914c-.115-1.265-1.16-2.028-2.688-2.028s-2.573.772-2.573 1.9c0 .9.668 1.423 2.3 1.827l1.4.343c2.6.615 3.679 1.659 3.679 3.513 0 2.371-1.887 3.855-4.891 3.855-2.81 0-4.707-1.45-4.83-3.742z" transform="translate(9.805 8.007) translate(25.325 10.229) translate(-33.704 -17.871)"/>
                    <path d="M83.411 19.3v2.186h1.757v1.5h-1.757v5.093c0 .791.352 1.16 1.124 1.16a5.925 5.925 0 0 0 .624-.044v1.495a5.208 5.208 0 0 1-1.053.088c-1.87 0-2.6-.7-2.6-2.494v-5.3h-1.343v-1.5h1.343V19.3z" transform="translate(9.805 8.007) translate(25.325 10.229) translate(-33.493 -17.842)"/>
                    <path d="M86.064 26.064c0-2.907 1.712-4.733 4.382-4.733s4.383 1.827 4.383 4.733-1.7 4.733-4.383 4.733-4.382-1.818-4.382-4.733zm6.832 0c0-1.994-.914-3.171-2.45-3.171S88 24.079 88 26.064c0 2 .914 3.17 2.45 3.17s2.45-1.168 2.45-3.17z" transform="translate(9.805 8.007) translate(25.325 10.229) translate(-33.372 -17.8)"/>
                    <path d="M96.185 21.444h1.809v1.572h.044a2.2 2.2 0 0 1 2.222-1.669 2.925 2.925 0 0 1 .65.071v1.774a2.651 2.651 0 0 0-.852-.115 1.911 1.911 0 0 0-1.977 2.123v5.48h-1.9z" transform="translate(9.805 8.007) translate(25.325 10.229) translate(-33.166 -17.8)"/>
                    <path d="M109.55 27.97c-.255 1.677-1.888 2.828-3.978 2.828-2.688 0-4.356-1.8-4.356-4.69s1.677-4.777 4.276-4.777c2.556 0 4.163 1.756 4.163 4.557v.65h-6.525v.115a2.406 2.406 0 0 0 2.485 2.617 2.09 2.09 0 0 0 2.134-1.3zm-6.411-2.757h4.619a2.222 2.222 0 0 0-2.266-2.345 2.339 2.339 0 0 0-2.353 2.345z" transform="translate(9.805 8.007) translate(25.325 10.229) translate(-33.063 -17.8)"/>
                </g>
            </g>
        </g>
        <g>
            <g>
                <path d="M37.87 8.731a2.694 2.694 0 0 1 2.865 3.025c0 1.945-1.051 3.063-2.865 3.063h-2.2V8.731zm-1.254 5.228h1.148a1.914 1.914 0 0 0 2.008-2.19 1.919 1.919 0 0 0-2.008-2.177h-1.147z" transform="translate(36.399 8.609) translate(-35.671 -8.431)"/>
                <path d="M41.681 12.492a2.177 2.177 0 1 1 4.334 0 2.177 2.177 0 1 1-4.334 0zm3.4 0c0-1-.447-1.578-1.233-1.578s-1.232.582-1.232 1.578.443 1.582 1.232 1.582 1.234-.582 1.234-1.582z" transform="translate(36.399 8.609) translate(-35.548 -8.403)"/>
                <path d="M51.675 14.79h-.941l-.95-3.384h-.072l-.946 3.384h-.932l-1.267-4.595h.92l.823 3.506h.068l.945-3.506h.87l.945 3.506h.072l.819-3.506h.907z" transform="translate(36.399 8.609) translate(-35.448 -8.401)"/>
                <path d="M53.854 10.2h.873v.73h.068a1.376 1.376 0 0 1 1.371-.819 1.494 1.494 0 0 1 1.59 1.709v2.975h-.907v-2.75c0-.738-.321-1.106-.992-1.106a1.054 1.054 0 0 0-1.1 1.164v2.688h-.907z" transform="translate(36.399 8.609) translate(-35.3 -8.403)"/>
                <path d="M59.094 8.437H60v6.389h-.907z" transform="translate(36.399 8.609) translate(-35.193 -8.437)"/>
                <path d="M61.218 12.492a2.177 2.177 0 1 1 4.334 0 2.177 2.177 0 1 1-4.334 0zm3.4 0c0-1-.447-1.578-1.233-1.578s-1.232.582-1.232 1.578.443 1.582 1.232 1.582 1.234-.582 1.234-1.582z" transform="translate(36.399 8.609) translate(-35.149 -8.403)"/>
                <path d="M66.4 13.492c0-.827.616-1.3 1.709-1.372l1.245-.072v-.4c0-.485-.321-.759-.941-.759-.506 0-.857.186-.958.511h-.878c.093-.789.835-1.3 1.877-1.3 1.152 0 1.8.573 1.8 1.544v3.139h-.873v-.646h-.072a1.546 1.546 0 0 1-1.38.721 1.388 1.388 0 0 1-1.529-1.366zm2.954-.393v-.384l-1.122.072c-.633.042-.92.258-.92.663s.359.654.852.654a1.083 1.083 0 0 0 1.19-1z" transform="translate(36.399 8.609) translate(-35.043 -8.403)"/>
                <path d="M71.348 12.526c0-1.452.746-2.372 1.907-2.372a1.514 1.514 0 0 1 1.409.806h.068V8.437h.907v6.389h-.869V14.1h-.07a1.6 1.6 0 0 1-1.443.8c-1.17 0-1.909-.918-1.909-2.374zm.937 0c0 .975.459 1.561 1.228 1.561s1.237-.595 1.237-1.557-.477-1.561-1.237-1.561-1.228.59-1.228 1.557z" transform="translate(36.399 8.609) translate(-34.942 -8.437)"/>
                <path d="M79.23 12.492a2.177 2.177 0 1 1 4.334 0 2.177 2.177 0 1 1-4.334 0zm3.4 0c0-1-.447-1.578-1.233-1.578s-1.232.582-1.232 1.578.443 1.582 1.232 1.582 1.234-.582 1.234-1.582z" transform="translate(36.399 8.609) translate(-34.782 -8.403)"/>
                <path d="M84.669 10.2h.873v.73h.068a1.376 1.376 0 0 1 1.371-.819 1.494 1.494 0 0 1 1.59 1.709v2.975h-.907v-2.75c0-.738-.321-1.106-.992-1.106a1.054 1.054 0 0 0-1.1 1.164v2.688h-.907z" transform="translate(36.399 8.609) translate(-34.67 -8.403)"/>
                <path d="M93.548 9.074v1.165h1V11h-1v2.363c0 .481.2.692.65.692a3.027 3.027 0 0 0 .346-.021v.755a2.975 2.975 0 0 1-.493.046c-1.008 0-1.41-.355-1.41-1.241V11h-.729v-.764h.729V9.074z" transform="translate(36.399 8.609) translate(-34.522 -8.424)"/>
                <path d="M95.7 8.437h.9v2.532h.072a1.414 1.414 0 0 1 1.4-.823 1.514 1.514 0 0 1 1.582 1.713v2.967h-.908v-2.743c0-.734-.342-1.106-.983-1.106a1.073 1.073 0 0 0-1.157 1.165v2.684H95.7z" transform="translate(36.399 8.609) translate(-34.445 -8.437)"/>
                <path d="M104.844 13.551a1.865 1.865 0 0 1-1.991 1.329 2.087 2.087 0 0 1-2.122-2.372 2.119 2.119 0 0 1 2.119-2.4c1.278 0 2.05.873 2.05 2.316v.316h-3.245v.051a1.214 1.214 0 0 0 1.224 1.316 1.1 1.1 0 0 0 1.093-.557zm-3.19-1.481h2.321a1.109 1.109 0 0 0-1.131-1.19 1.175 1.175 0 0 0-1.19 1.19z" transform="translate(36.399 8.609) translate(-34.343 -8.403)"/>
            </g>
        </g>
    </g>
</svg>
