<svg xmlns="http://www.w3.org/2000/svg" width="585.5" height="387.5" viewBox="0 0 585.5 387.5">
    <defs>
        <filter id="Rectangle_1825" width="510" height="344" x="75.5" y="0" filterUnits="userSpaceOnUse">
            <feOffset dy="8"/>
            <feGaussianBlur result="blur" stdDeviation="12"/>
            <feFlood flood-opacity=".078"/>
            <feComposite in2="blur" operator="in"/>
            <feComposite in="SourceGraphic"/>
        </filter>
        <filter id="Rectangle_1826" width="163" height="225" x="0" y="162.5" filterUnits="userSpaceOnUse">
            <feOffset dy="10"/>
            <feGaussianBlur result="blur-2" stdDeviation="12.5"/>
            <feFlood flood-opacity=".078"/>
            <feComposite in2="blur-2" operator="in"/>
            <feComposite in="SourceGraphic"/>
        </filter>
        <style>
            .cls-1{fill:#fff}.cls-5{fill:#a8d29f}.cls-6{fill:#4a75cb}.cls-7{fill:#699dee}.cls-8{fill:#d86713}.cls-9{fill:#f1a34f}.cls-11{fill:#82b378}.cls-13{fill:#ed975d}.cls-14{fill:#2b478b}.cls-15{fill:#233862}.cls-16{fill:#1e3d70}.cls-17{fill:#ffb27d}.cls-18{fill:#2c3a64}.cls-21{fill:#ee9849}.cls-22{fill:#e58638}.cls-23{fill:#2a4e96}.cls-24{fill:#35488b}.cls-25{fill:#4271bc}.cls-26{fill:#2f2e41}.cls-27{fill:#ffb8b8}.cls-29{fill:#575a88}
        </style>
    </defs>
    <g id="Group_799" transform="translate(-816.5 -440)">
        <g id="Group_792">
            <g filter="url(#Rectangle_1825)" transform="translate(816.5 440)">
                <rect id="Rectangle_1825-2" width="438" height="272" class="cls-1" rx="5" transform="translate(111.5 28)"/>
            </g>
            <rect id="Rectangle_1835" width="420" height="258" fill="#ea907a" opacity="0.1" rx="5" transform="translate(937 475)"/>
        </g>
        <g id="Group_793">
            <g filter="url(#Rectangle_1826)" transform="translate(816.5 440)">
                <rect id="Rectangle_1826-2" width="88" height="150" class="cls-1" rx="6" transform="translate(37.5 190)"/>
            </g>
            <rect id="Rectangle_1834" width="81" height="139" fill="#ea626b" opacity="0.1" rx="6" transform="translate(858 636)"/>
        </g>
        <g id="g10" transform="translate(957.509 531.499)">
            <g id="g12">
                <g id="g18" transform="translate(2.676 28.605)">
                    <path id="path20" fill="#fbecdb" d="M351.926-1595.045s-42.521-89.848 41.283-89.848c44.279 0 26.038-24.652 56.142-53.182s135.384-51.323 157.79 3.768-32.968 96.92 20.541 89.744c64.3-8.622 89.707 49.517 89.707 49.517H351.926" transform="translate(-341.14 1767.941)"/>
                </g>
                <g id="g22" transform="translate(113.362 139.764)">
                    <path id="path24" d="M1566.774-730.995c-3.966-2.9-12.075-.942-18.058 1.152a27.3 27.3 0 0 0-3.291-3.816c12.891-8.3 30.7-26.014 21.26-27.514-8.2-1.3-19.275 14.638-25.191 24.342-6.146-4.133-15.559-7.172-29.933-6.117-37.305 2.734-66.447-21.329-87.929-13.3-17.08 6.381-32.734 9.956-47.83 8.735.65-11.029.791-32.681-7.868-34.926-8.792-2.28-.168 22.309 4.624 34.588q-1.685-.217-3.365-.516c-3.1-6.119-8.219-14.127-13.834-14.4-5.288-.259 1.238 6.942 7.661 13.041-18.46-3.876-40.359 11.131-40.722 28.874h230.472a21.27 21.27 0 0 0-2.215-6c8.908-.174 20.531-.984 16.219-4.133" class="cls-5" transform="translate(-1322.297 782.591)"/>
                </g>
                <path id="path26" d="M1229.489-356.919v13.719h60.744v-13.716h-60.744" class="cls-6" transform="translate(-1126.597 544.704)"/>
                <path id="path28" d="M1063.463-356.919v13.719h60.744v-13.716h-60.744" class="cls-7" transform="translate(-979.3 544.704)"/>
                <g id="g30" transform="translate(187.533 138.277)">
                    <path id="path32" d="M1979.77-732.549H2025v-63.221h-45.23v63.221" class="cls-8" transform="translate(-1979.77 795.77)"/>
                </g>
                <g id="g34" transform="translate(173.588 138.277)">
                    <path id="path36" d="M1856.157-732.551h45.23v-63.221h-45.23v63.221" class="cls-9" transform="translate(-1856.157 795.772)"/>
                </g>
                <g id="g38" transform="translate(218.817 138.277)">
                    <path id="path40" fill="#c95c12" d="M2257.085-795.77l13.946 9.493v-9.493h-13.946" transform="translate(-2257.085 795.77)"/>
                </g>
                <path id="path42" d="M749.541-684.887s-8.459 6.29-10.109 5.908 6.182-6.79 6.182-6.79c-2.947-1.417-12.108-.528-12.108-.528s-3.051 9.84-4.556 9.064 3.146-8.575 3.146-8.575c-3.282-.2-7.308 2.24-7.308 2.24-5.511 4.351.362 11.2.362 11.2a16.756 16.756 0 0 1-4.611 6.471 14.542 14.542 0 0 0-5.316 10.245l.9.08s1.43-6.117 4.029-9.01c.1-.105.248-.256.429-.438.424-.393.72-.687.919-.905 1.293-1.244 3.081-2.826 3.942-2.98a1.654 1.654 0 0 1-.037-.433l.037.433c.3 3.463 7.014 6.487 11.147 7.109s2.856-1.077 1.431-3.6-5.931-3.648-6.959-4.807 1.1-1.163 3.588-.026 2.831 4.171 6.826 6.084 10.006-4.717 10.006-4.717c-3.184-.161-7.73-3.619-7.566-4.676s7.718 1.825 9.009 1.963 4.229-1.468 4.684-6.668-8.071-6.653-8.071-6.653" class="cls-11" transform="translate(-670.348 837.168)"/>
                <path id="path44" d="M351.689-827.283s9.343-5.233 4.983-12.333c0 0-3.488-4.361-7.225-5.481 0 0 1.993 10.588 0 10.837s-1.37-11.959-1.37-11.959-9.841-4.734-13.7-4.359c0 0 6.1 10.339 4.111 10.09S329.64-851.2 329.64-851.2s-10.09-1.87-11.71 4.111 1 8.969 2.491 9.342 11.087.25 10.838 1.5-6.727 3.238-10.339 2.118c0 0 3.986 9.84 9.218 9.342s6.851-3.736 10.09-3.986 5.606.623 3.986 1.5-7.1.286-9.716 2.509-4.734 3.595.125 4.591 13.578.375 15.322-3.363l1.744-3.736" class="cls-5" transform="translate(-317.42 983.47)"/>
                <path id="path46" d="M394.445-768.994a19.87 19.87 0 0 1-2.491-9.092c-2.99-9.469-29.149-17.939-29.149-17.939 33.26 13.453 27.405 21.675 27.405 21.675.9.524 2.24 3.016 3.173 4.929.133.325.343.776.656 1.388.127.275.228.5.3.66 1.713 4.284.805 11.684.805 11.684l1.038.278a17.255 17.255 0 0 0-1.734-13.584" class="cls-11" transform="translate(-357.685 934.273)"/>
                <path id="path48" d="M689.277-951.784s-12.315-6.9-6.568-16.257c0 0 4.6-5.747 9.524-7.224 0 0-2.627 13.957 0 14.285s1.806-15.763 1.806-15.763 12.972-6.24 18.063-5.747c0 0-8.046 13.629-5.419 13.3s11.659-14.122 11.659-14.122 13.3-2.463 15.436 5.419-1.314 11.823-3.284 12.314-14.615.329-14.286 1.972 8.867 4.269 13.629 2.79c0 0-5.254 12.973-12.151 12.316s-9.031-4.926-13.3-5.254-7.389.82-5.255 1.97 9.36.376 12.808 3.308 6.24 4.738-.164 6.051-17.9.493-20.2-4.433l-2.3-4.926" class="cls-5" transform="translate(-640.144 1100.756)"/>
                <path id="path50" d="M740.22-910.584s-34.483 11.167-38.424 23.647a26.2 26.2 0 0 1-3.284 11.987 22.743 22.743 0 0 0-2.286 17.905l1.368-.367s-1.2-9.754 1.062-15.4c.092-.208.226-.507.392-.871.412-.806.689-1.4.864-1.829 1.229-2.521 3-5.808 4.182-6.5 0 0-7.718-10.837 36.126-28.573" class="cls-11" transform="translate(-652.663 1035.909)"/>
                <path id="path52" d="M559.552-436.755a24.123 24.123 0 0 0 24.124-24.124h-48.248a24.123 24.123 0 0 0 24.124 24.124" class="cls-9" transform="translate(-510.834 636.936)"/>
                <path id="path54" fill="#ffb973" d="M588.609-436.939a24.311 24.311 0 0 1-3 .183 24.124 24.124 0 0 1-24.123-24.124h5.993a24.13 24.13 0 0 0 21.127 23.94" transform="translate(-533.955 636.936)"/>
                <path id="path56" d="M578.412-261.746H535.45a2.977 2.977 0 0 0-2.976 2.977h48.914a2.976 2.976 0 0 0-2.976-2.977" class="cls-9" transform="translate(-508.213 460.268)"/>
                <path id="path58" d="M577.616-460.879h-48.85a.37.37 0 0 0-.37.37.37.37 0 0 0 .37.37h48.85a.37.37 0 0 0 .37-.37.37.37 0 0 0-.37-.37" class="cls-8" transform="translate(-504.595 636.936)"/>
                <g id="g60" transform="translate(218.389 45.52)">
                    <path id="path62" d="M2294.074-1614.5c-.7-.106-2.805 1.842-2.805 1.842-4.5.52-11.078 1.715-13.444 2.17-1.681.323-6.195-1.216-10.606-2.983-5.245-2.1-10.341-4.528-10.341-4.528-2.909-.148-6.214 5.161-.312 8.537a44.721 44.721 0 0 0 8.184 2.2c5.377 1.108 11.731 2.07 13.892 1.732 2.513-.393 9.622-2.994 13.852-4.986l.011-.005.046-.022a5.182 5.182 0 0 1 1.981-.539 4.419 4.419 0 0 0 2.612-1.79c.053-.387-2.369-1.52-3.069-1.626" class="cls-13" transform="translate(-2253.288 1618.001)"/>
                </g>
                <g id="g64" transform="translate(209.27 70.34)">
                    <path id="path66" d="M2216.864-1352.42l-2.478.5s-11.336-12.738-13.086-18.1c-.936-2.864-6.921-4.1-13.176-5.719-5.443-1.407-11.091-3.1-13.789-6.412-5.8-7.109 3.641-15.845 3.641-15.845s10.036 5.965 18.694 12.127c6.051 4.307 11.431 8.709 12.24 11.24 1.97 6.153 6.143 17.849 7.954 22.2" class="cls-14" transform="translate(-2172.451 1397.99)"/>
                </g>
                <g id="g68" transform="translate(249.233 115.061)">
                    <path id="path70" d="M2527.834-996.519h1.394c.466-.073.81-.208 1.29-.271a1.287 1.287 0 0 1 1.127.271.084.084 0 0 1 .013.014h5.92c.149-.212.005-.705-.135-1.068a.835.835 0 0 0-.552-.506 6.4 6.4 0 0 1-3-1.37c-.636-.576-3.077-2.118-3.077-2.118h-.013c-.054 0-.309.079-1.42 1.017-.574.484-1.553-.683-1.553-.683a1.386 1.386 0 0 0-.32.435 1.483 1.483 0 0 0-.129.909 5.849 5.849 0 0 1-.423 2.195c-.136.407-.253.695-.253.695s-.067.334 1.132.484" class="cls-15" transform="translate(-2526.702 1001.57)"/>
                </g>
                <g id="g72" transform="translate(209.27 70.339)">
                    <path id="path74" d="M2196.672-1385.865l-8.546 10.13c-5.444-1.408-11.093-3.1-13.789-6.412-5.8-7.109 3.64-15.845 3.64-15.845s10.039 5.965 18.7 12.127" class="cls-16" transform="translate(-2172.452 1397.993)"/>
                </g>
                <g id="g76" transform="translate(198.19 73.326)">
                    <path id="path78" d="M2101.772-1367.667s-.688 2.172-1.811 5.441c-1.419 4.133-3.53 10.018-5.821 15.475-.5 1.2-1.016 2.378-1.533 3.513-1.906 4.2-3.855 7.8-5.572 9.629-3.087 3.289-10.588 24.432-10.588 24.432l-1.869-.517s-2.608-18.054 6.624-28.328a.639.639 0 0 0 .187-.384c.123-1.521.563-8.331 1.519-15.232.234-1.694.5-3.391.8-5.017.019-.1.038-.207.06-.31 1.4-7.521 2.747-10.866 4.482-12.548l12.766 3.633.756.215" class="cls-14" transform="translate(-2074.238 1371.515)"/>
                </g>
                <path id="path80" d="M2066.469-835.625h1.395c.466-.074.81-.209 1.289-.272a1.288 1.288 0 0 1 1.128.272l.014.013h5.919c.149-.214.006-.705-.134-1.068a.842.842 0 0 0-.553-.507 6.385 6.385 0 0 1-3-1.369c-.638-.576-3.079-2.119-3.079-2.119h-.012c-.054 0-.308.08-1.419 1.017-.573.484-1.552-.683-1.552-.683a1.4 1.4 0 0 0-.321.435 1.483 1.483 0 0 0-.128.91 5.882 5.882 0 0 1-.423 2.195c-.138.406-.255.694-.255.694s-.066.335 1.133.486" class="cls-15" transform="translate(-1868.151 973.889)"/>
                <path id="path82" d="M1892.224-1561.6s-2.136 5.224-4.6 10.309c-2.071 4.276-4.373 8.453-5.831 9.346-2.058 1.256-7.725 4.8-11.4 7.447 0 0-2.869-.022-3.315.527s-1.474 3.017-1.173 3.267a4.422 4.422 0 0 0 3.135-.434 5.181 5.181 0 0 1 1.828-.935l.049-.015h.012c4.467-1.374 11.477-4.238 13.6-5.639 1.828-1.2 5.876-6.194 9.106-10.633a44.64 44.64 0 0 0 4.571-7.136c2.092-6.469-3.927-8.171-5.979-6.1" class="cls-17" transform="translate(-1691.167 1614.217)"/>
                <g id="g84" transform="translate(200.026 24.256)">
                    <path id="path86" d="M2102.713-1798.616a11.045 11.045 0 0 0-.763-.989 2.364 2.364 0 0 0 .941-.141c.751-.309 1.092-2.69.978-3.395s-1.153-2.748-2.437-2.951-2.612 1.223-2.612 1.223c.238-1.031 2.41-1.624 2.41-1.624-4.475.825-4.246 3.809-4.217 4.086-4.095-1.459-6.5 6.255-6.5 6.255l10.611 6.253s.028-1.7 1.04-1.594c1.579.171 2.894-3.7.548-7.123" class="cls-18" transform="translate(-2090.514 1806.493)"/>
                </g>
                <g id="g88" transform="translate(205.161 39.834)">
                    <path id="path90" d="M2143.776-1659.918c-2.435 1.147-5.666-.506-5.648-.524.209-.209.135-.833-.056-1.651a12.071 12.071 0 0 0-1.479-3.41c-.174-.3-.349-.592-.558-.9l.279-.1 4.731-1.9s.767 1.374 1.566 2.626c.678 1.044 1.392 1.982 1.7 1.948.019-.019 3.148 2.138-.539 3.913" class="cls-17" transform="translate(-2136.035 1668.405)"/>
                </g>
                <g id="g92" transform="translate(205.721 40.301)">
                    <path id="path94" d="M2145.446-1664.264c-.122 1.687-.694 4.731-2.974 5.845a12.011 12.011 0 0 0-1.478-3.409l4.452-2.436" class="cls-13" transform="translate(-2140.994 1664.264)"/>
                </g>
                <g id="g96" transform="translate(200.194 32.759)">
                    <path id="path98" d="M2097.252-1719.215s6.159-2.428 4.587-6.24-1.834-6.692-5.832-5.3-4.159 3.155-3.943 4.555 3.546 7.521 5.188 6.988" class="cls-17" transform="translate(-2092.004 1731.114)"/>
                </g>
                <g id="g100" transform="translate(199.435 32.362)">
                    <path id="path102" d="M2093.578-1729.45c2.845-.4 3.675-1.552 3.675-1.552a7.868 7.868 0 0 1-4.157-3.316s-3.2-1.078-5.566.724a1.589 1.589 0 0 0-.3.669c-.543-.179-1.359-.132-1.83 1.4-.707 2.305 1.809 4.822 1.809 4.822.611-.172-.078-2.227-.174-3.322a5.191 5.191 0 0 1 .6-2.33c.3.39 3.3 4.161 6.965 4.31a15.425 15.425 0 0 1-3.7-1.984 4.724 4.724 0 0 0 2.676.577" class="cls-18" transform="translate(-2085.275 1734.637)"/>
                </g>
                <g id="g104" transform="translate(197.888 43.769)">
                    <path id="path106" d="M2098.3-1621.114c-.051-.184-.108-.375-.166-.571a14.406 14.406 0 0 0 1.553-4.657 9.353 9.353 0 0 0-.294-4.557s-4.272-2.266-6.158-2.553a.224.224 0 0 0-.024-.008l-.074-.006a26.115 26.115 0 0 0-6.028.58 2.982 2.982 0 0 1-1.447 3.528c-2.245 1.41-4.641-.362-4.641-.362-.071.048-.149.1-.227.158s-5.9 3.9-6.431 4.785-2.8 5.3-2.8 5.3.72 3.7 8.694 4.008a18.452 18.452 0 0 1 1.321 4.434c.633 5.022-.1 8.984.636 11.915s14.044 1.26 16.453.7 1.866-3.136 2.053-5.636c.234-3.14-1.629-14.28-2.416-17.049" class="cls-7" transform="translate(-2071.56 1633.517)"/>
                </g>
                <g id="g108" transform="translate(222.016 49.797)">
                    <path id="path110" fill="#4a82d3" d="M2289.442-1578.941a14.445 14.445 0 0 1-1.564 4.677c-.209-.92-1.06-4.3-2.436-5.826a11.783 11.783 0 0 1 4 1.149" transform="translate(-2285.442 1580.089)"/>
                </g>
                <path id="path112" d="M1840.486-1311.4a41.879 41.879 0 0 1 3.013-3.359 9.16 9.16 0 0 1 3.008-.852c.134.125.14.307-.151.563s-1.4.9-1.239.975 3.5-1.59 3.981-1.031-.274 2.868-1.561 3.975-5.129 1.579-5.37 1.734c-2.05 1.31-1.682-2-1.682-2" class="cls-13" transform="translate(-1668.643 1395.262)"/>
                <path id="path114" d="M1453.85-1402.165s3.562 4.224 8.1 2.457a13.725 13.725 0 0 0 .99-4.1c0-.214 0-.421.008-.618.024-1.958.09-3.058.09-3.058-.206-.086-6.933-2.847-6.927-2.619.116 5.3-2.252 7.937-2.252 7.937" class="cls-17" transform="translate(-1325.647 1479.087)"/>
                <path id="path116" d="M1479.762-1399.188a10.52 10.52 0 0 0 6.166 4.413c.024-1.958.09-3.058.09-3.058-.187-.05-6.444-1.711-6.251-1.356" class="cls-13" transform="translate(-1348.632 1469.436)"/>
                <path id="path118" d="M1471.1-1486.62s-7.564 1.778-8.6-2.95-2.709-7.682 2.077-9.016 6.122.262 6.852 1.756 1.611 9.626-.33 10.21" class="cls-17" transform="translate(-1332.301 1558.021)"/>
                <path id="path120" fill="#a9453d" d="M1432.437-1517.43c-.1.066-1.731.565-4.813-5.574a5.345 5.345 0 0 1 .315-4.891c1.128-1.843 5.128-3.291 8.45-3.921s4.12 1.24 4.9 3.118a10.147 10.147 0 0 0 3.193 3.6c-2.864 1.6-6.316-.689-7.512-.313s-1.617 2.261-1.707 2.865-.227 1.106-1.731.566-.68 2.131-.439 2.641c0 0 .2 1.36-.657 1.913" transform="translate(-1301.983 1587.17)"/>
                <path id="path122" d="M1225.611-447.081h-4.58c-.96 0-2.027-.975-2.294-2.757s-2.24-2.759-2.668-4.219 1.761-3.515 1.761-3.515l.366-.477.381-.5 3.628.865s.09.875.145 1.991c.039.8.06 1.736.015 2.551-.107 1.948.538 4.043 2.245 4.422s1 1.635 1 1.635" class="cls-18" transform="translate(-1114.641 634.866)"/>
                <path id="path124" d="M1481.7-410.046h-12.14a.988.988 0 0 1-.257-.077c-.811-.418-.557-3.613-.46-4.6.019-.183.033-.29.033-.29s4.269-3.515 4.856-.823c.019.083.041.165.063.247.742 2.518 4.054 3.663 5.969 3.982a2.1 2.1 0 0 1 1.937 1.56" class="cls-18" transform="translate(-1338.846 597.875)"/>
                <path id="path126" d="M1419.566-987.675s-.648 8.089-1.411 17.812c-1.036 13.209-2.281 29.435-2.4 32.508-.214 5.337-1.068 13.874-1.068 13.874s-2.028 2.029-6.084 1.173a139.626 139.626 0 0 1-4.646-25.082c-.016-.212-.033-.424-.048-.638-.961-13.127-2.455-40.768-2.455-40.768l18.116 1.121" class="cls-21" transform="translate(-1279.158 1105.298)"/>
                <path id="path128" d="M1419.566-987.675s-.648 8.089-1.411 17.812l-14.2 22.474c-.016-.212-.033-.424-.048-.638-.961-13.127-2.455-40.768-2.455-40.768l18.116 1.121" class="cls-22" transform="translate(-1279.158 1105.298)"/>
                <path id="path130" d="M1266.368-1011.892s-11.686 29.3-19.37 43.063-10.085 17.609-10.085 17.609-4.4-1.76-4.8-2.962c0 0 2.938-26.578 8.084-33.057 2.908-3.661 6.323-14.647 6.484-18.49s1.039-11.446 1.039-11.446l18.65 5.283" class="cls-21" transform="translate(-1128.922 1130.475)"/>
                <path id="path132" d="M1253.576-1024.961a39.58 39.58 0 0 1-.524 4.221 8.627 8.627 0 0 1-1.87 2.278c-.171-.025-.273-.162-.187-.517s.6-1.45.435-1.421-1.853 3.113-2.526 2.939-1.332-2.367-.931-3.916 3.121-3.982 3.225-4.231c.881-2.117 2.379.647 2.379.647" class="cls-13" transform="translate(-1142.887 1138.665)"/>
                <path id="path134" d="M1274.838-1298.248c1.294.415 1.5.321 1.5.321s6.3-11.462 6.933-12.511 13.367-12.853 13.367-12.853l-3.271-12.2s-14.478 18.748-16.041 21.438c-2.584 4.445-4.1 14.77-4.1 14.77a3.784 3.784 0 0 0 1.609 1.033" class="cls-16" transform="translate(-1165.402 1412.88)"/>
                <path id="path136" d="M1387.136-1339.957c-.045 2.505-.191 5.321-.388 8.181l-.036.509c-.125 1.772-.262 3.548-.418 5.28-.062.695-.129 1.381-.2 2.055l-.011.091c0 .252-.036.526-.063.776-.639 6.487-1.309 11.612-1.432 11.69a.72.72 0 0 1-.5.126c-1.7-.214-6.778.173-10.932-.731a31.51 31.51 0 0 1-9.726-4.033c-.424-.251-1.393-.916-1.313-1.412.077-.546.219-1.336.4-2.327a126.025 126.025 0 0 0 2.089-16.332q.108-1.941.314-3.828a58.012 58.012 0 0 1 1.7-9.143c1.424-5.13 3.518-9.059 6.144-10.6.343-.191 2.19.984 3.885 2.072a7.487 7.487 0 0 0 4.819 1.142l1.411 1.561a15.757 15.757 0 0 1 4.027 8.393c.038.278.069.573.1.886a55.269 55.269 0 0 1 .132 5.642" class="cls-23" transform="translate(-1244.262 1434.335)"/>
                <path id="path138" d="M1492.38-1251.928c-.045 2.505-.191 5.321-.388 8.182l-.036.509c-9.717-6.082-11.214-17.212-11.214-17.212a26.583 26.583 0 0 1 11.505 2.881 55.222 55.222 0 0 1 .132 5.641" class="cls-16" transform="translate(-1349.506 1346.306)"/>
                <path id="path140" d="M1516.019-1309.061c-.5-1.355-1.28-1.267-1.28-1.267s-14.449 3.6-15.745 3.755-15.557-5.569-15.557-5.569-5.614-2.519-8.243-.219a6.284 6.284 0 0 0-1.855 6.658 6.359 6.359 0 0 0 5.374 4.736c5.818.741 17.427 2.136 19.859 1.8 5.415-.754 17.686-7.837 17.686-7.837a4.559 4.559 0 0 0-.239-2.055" class="cls-23" transform="translate(-1342.7 1393.219)"/>
                <g id="g142" transform="translate(308.509 109.759)">
                    <path id="path144" d="M3059.416-1047.685s2.007 1.86 1.616 3.182-2.2 2.2-2.448 3.819-1.224 2.5-2.1 2.5h-4.2s-.648-1.137.918-1.479 2.156-2.241 2.059-4a31.594 31.594 0 0 1 .147-4.112l3.331-.783.685.881" class="cls-18" transform="translate(-3052.144 1048.567)"/>
                </g>
                <g id="g146" transform="translate(279.361 113.922)">
                    <path id="path148" d="M2805.167-1005.664a7.759 7.759 0 0 1-1.9.22h-9.5c.034-.283.255-1.29 1.809-1.541 1.755-.285 4.8-1.305 5.472-3.55.024-.072.042-.146.06-.22.536-2.4 4.454.734 4.454.734s.012.1.028.259c.092.882.324 3.727-.419 4.1" class="cls-18" transform="translate(-2793.763 1011.659)"/>
                </g>
                <g id="g150" transform="translate(281.634 54.727)">
                    <path id="path152" d="M2813.908-1535.357s.594 7.421 1.293 16.342c.951 12.119 2.094 27 2.207 29.824.195 4.9.978 12.729.978 12.729s1.861 1.861 5.583 1.076a128.1 128.1 0 0 0 4.263-23.012c.014-.194.031-.389.043-.584.881-12.043 2.252-37.4 2.252-37.4l-16.619 1.028" class="cls-24" transform="translate(-2813.908 1536.385)"/>
                </g>
                <g id="g154" transform="translate(281.634 54.727)">
                    <path id="path156" d="M2813.908-1535.357s.594 7.421 1.293 16.342l13.031 20.618c.014-.194.031-.389.043-.584.881-12.043 2.252-37.4 2.252-37.4l-16.619 1.028" class="cls-18" transform="translate(-2813.908 1536.385)"/>
                </g>
                <g id="g158" transform="translate(284.349 51.79)">
                    <path id="path160" d="M2837.976-1557.577s10.722 26.878 17.771 39.508 9.253 16.156 9.253 16.156 4.04-1.616 4.407-2.717c0 0-2.7-24.385-7.418-30.328-2.668-3.359-5.8-13.439-5.948-16.964s-.953-10.5-.953-10.5l-17.111 4.847" class="cls-24" transform="translate(-2837.976 1562.424)"/>
                </g>
                <g id="g162" transform="translate(244.324 41.425)">
                    <path id="path164" d="M2490.14-1653.665a32.06 32.06 0 0 0-3.4-.631 6.983 6.983 0 0 0-2.224.89c-.023.138.059.252.355.271s1.269-.106 1.206.013-2.865.67-2.9 1.234 1.5 1.614 2.8 1.685 3.85-1.439 4.07-1.458c1.856-.161.081-2 .081-2" class="cls-17" transform="translate(-2483.185 1654.297)"/>
                </g>
                <g id="g166" transform="translate(249.707 20.626)">
                    <path id="path168" d="M2531.234-1816.5c-.419-1.328-.32-1.54-.32-1.54s11.788-6.374 12.868-7.021 13.261-13.61 13.261-13.61l12.478 3.434s-19.311 14.709-22.079 16.293c-4.572 2.618-15.163 4.1-15.163 4.1a3.868 3.868 0 0 1-1.046-1.656" class="cls-22" transform="translate(-2530.904 1838.671)"/>
                </g>
                <g id="g170" transform="translate(269.482 8.52)">
                    <path id="path172" d="M2716.339-1940.174s-4.374 7.7-8.65 8.7a11.69 11.69 0 0 1 1.219-4.354c-.425-.5-.8-.964-1.126-1.378a25.417 25.417 0 0 1-1.587-2.224l1.449-3.9.987-2.647a12.565 12.565 0 0 0 1.539 2.218 10.466 10.466 0 0 0 6.17 3.586" class="cls-17" transform="translate(-2706.195 1945.977)"/>
                </g>
                <g id="g174" transform="translate(269.483 10.736)">
                    <path id="path176" d="M2710.179-1926.332a8.117 8.117 0 0 1-2.387 6.555 25.953 25.953 0 0 1-1.587-2.224l1.45-3.9a8.239 8.239 0 0 1 2.524-.43" class="cls-13" transform="translate(-2706.205 1926.333)"/>
                </g>
                <g id="g178" transform="translate(262.8 3.03)">
                    <path id="path180" d="M2652.495-1982.038s6.537-2.548 4.887-6.593-1.916-7.1-6.158-5.646-4.42 3.33-4.2 4.813 3.726 7.984 5.468 7.426" class="cls-17" transform="translate(-2646.965 1994.645)"/>
                </g>
                <g id="g182" transform="translate(270.544 13.249)">
                    <path id="path184" d="M2747.159-1863.489c-2.636 3.791-22.351 8.856-22.117 6.231a28.215 28.215 0 0 0 0-5.175q-.072-.844-.208-1.788a41.248 41.248 0 0 0-4.344-13.012c-.2-.385-.407-.772-.622-1.165a40.113 40.113 0 0 1-2.732-6.141c-1.367-3.947-1.916-7.723-1.227-10.192a.213.213 0 0 1 .01-.035c4.12-1.906 5.719-9.295 5.719-9.295s14.057 2.524 21.933 21.263c0 0 5.886 16.009 3.592 19.309" class="cls-21" transform="translate(-2715.607 1904.061)"/>
                </g>
                <g id="g186" transform="translate(275.422 29.125)">
                    <path id="path188" d="M2763.4-1737.578q-.074-.843-.209-1.788a41.224 41.224 0 0 0-4.345-13.013 18.41 18.41 0 0 1 1.776-6.092c2.8-4.2 4.436-4.859 4.436-4.859s4.205 17.733-1.657 25.751" class="cls-22" transform="translate(-2758.849 1763.329)"/>
                </g>
                <g id="g190" transform="translate(249.706 50.657)">
                    <path id="path192" d="M2539-1572.461a42 42 0 0 0-4.493.421 9.134 9.134 0 0 0-2.474 1.911c.02.182.162.295.54.214s1.557-.586 1.521-.416-3.36 1.865-3.2 2.585 2.468 1.488 4.125 1.112 4.321-3.182 4.59-3.284c2.272-.867-.611-2.544-.611-2.544" class="cls-17" transform="translate(-2530.892 1572.461)"/>
                </g>
                <g id="g194" transform="translate(256.667 16.933)">
                    <path id="path196" d="M2593.006-1836.2c-.778-1.259-.217-1.833-.217-1.833s12.015-9.407 12.956-10.357 5.3-16.083 5.3-16.083 1.5-6.124 5.018-6.8a6.437 6.437 0 0 1 6.548 2.7 6.515 6.515 0 0 1 .442 7.326c-3.068 5.17-9.256 15.43-11.063 17.183-4.021 3.9-17.478 9.353-17.478 9.353a4.668 4.668 0 0 1-1.51-1.488" class="cls-21" transform="translate(-2592.593 1871.402)"/>
                </g>
                <g id="g198" transform="translate(260.363)">
                    <path id="path200" d="M2639.156-2019.976c.046-.092.18-.187.5-.286a1.347 1.347 0 0 0-.657-.025 1.728 1.728 0 0 0-1.466-1.216 1.029 1.029 0 0 1 .656.6c-1.145-.727-3.272-.937-8.577.829-6.992 2.329-3.5 6.389-2.439 6.714s3.012-1.762 4.765-2.048 2.7 2.159 3.373 2.361.288-.353.991-.908 1.1.752 1.086 1.672 1.351 1.793 1.351 1.793l.8-1.468c.8-1.47.582-6.805-.184-7.763l-.2-.257" class="cls-14" transform="translate(-2625.364 2021.503)"/>
                </g>
                <path id="path206" d="M1620.646-358.292v7.913l-18.73-7.913z" class="cls-25" transform="translate(-1457.01 545.922)"/>
                <g id="g208" transform="translate(261.989 120.137)">
                    <path id="path210" d="M2639.769-956.568v81.361h61.944v-81.361h-61.944" class="cls-6" transform="translate(-2639.769 956.568)"/>
                </g>
                <g id="g212" transform="translate(242.886 120.138)">
                    <path id="path214" d="M2470.442-956.566v81.361h61.947v-81.361h-61.947" class="cls-7" transform="translate(-2470.442 956.566)"/>
                </g>
                <g id="g216" transform="translate(304.833 120.138)">
                    <path id="path218" d="M3038.655-956.564v12.164l-19.1-12.166h19.1" class="cls-25" transform="translate(-3019.556 956.564)"/>
                </g>
            </g>
        </g>
        <g id="Group_712" transform="translate(-8631.816 3648.224)">
            <path id="Path_4452" d="M751.733 721.154a2.277 2.277 0 0 0 .117 1.962 1.981 1.981 0 0 0 .839.614 5.972 5.972 0 0 0 2.664.391 1.258 1.258 0 0 0 .943-.362 11.611 11.611 0 0 0 4.017-6.852.65.65 0 0 0-.021-.42.667.667 0 0 0-.28-.237 6.291 6.291 0 0 0-1.5-.685c-2.89-.747-6.063 3.153-6.779 5.589z" class="cls-26" transform="translate(8761.091 -3607.598)"/>
            <path id="Path_4453" d="M890.83 668.8a4.252 4.252 0 0 0 1.4 1.07 1.971 1.971 0 0 0 1.716-.029 2.507 2.507 0 0 0 .956-2.416 9.577 9.577 0 0 0-1.85-4.586c-.293-.436-.942-1.734-1.511-1.75-.27-.008-1.282.973-1.557 1.16-1 .682-1.7 1.17-1.491 2.479a8.764 8.764 0 0 0 2.337 4.072z" class="cls-26" transform="translate(8652.29 -3564.371)"/>
            <path id="Path_4454" d="M783.094 356.9c-4.275-.332-8.358-.209-12.641-.428-.36-.018-.187 4.1-.559 6.338-.192 1.15-6.638 68.5-5.838 68.64a53.149 53.149 0 0 0 6.224.922c.848.075 8.755-43.812 8.376-47.378a60.185 60.185 0 0 1 6.525 16.591c2.432 10.639 3.149 22.673 4.661 22a9.057 9.057 0 0 1 3.819-3.02c2.5-.93-1.551-52.106-5.83-54.458a12.852 12.852 0 0 0-.672-4.421 11.751 11.751 0 0 0-4.065-4.786z" class="cls-26" transform="translate(8751.223 -3322.265)"/>
            <path id="Path_4459" d="M785.653 184.1a8.619 8.619 0 0 0-6.608-3.924s-4.277-.547-7.021 5.163c-2.557 5.322-6.087 10.46-.568 11.706l1-3.1.617 3.334a21.6 21.6 0 0 0 2.362.04c5.91-.191 11.539.056 11.358-2.065-.245-2.823.995-7.548-1.14-11.154z" class="cls-26" transform="translate(8747.609 -3182.135)"/>
            <path id="Path_4460" d="M800.434 242.023a2.341 2.341 0 0 1-.2 1.233c-.416.726-1.43.835-2.041 1.407a3.428 3.428 0 0 0-.745 2.458 6.8 6.8 0 0 0 .276 2.726 6.629 6.629 0 0 0 .774 1.33q.559.806 1.128 1.6a6.914 6.914 0 0 0 .676.848 5.755 5.755 0 0 0 2.543 1.349 3.179 3.179 0 0 0 1.848.122 3.537 3.537 0 0 0 1.075-.661 5.757 5.757 0 0 0 1.216-1.179 5.489 5.489 0 0 0 .744-2.514 54.245 54.245 0 0 0 .358-7.815 1.917 1.917 0 0 0-.149-.83c-.309-.6-1.137-.732-1.573-1.252a2.5 2.5 0 0 1-.385-1.657l.008-1.476a.619.619 0 0 0-.072-.36.609.609 0 0 0-.423-.2 14.275 14.275 0 0 0-2.777-.186 6.856 6.856 0 0 0-2.851.38c-.591.381.149 1.433.286 2.024a13.185 13.185 0 0 1 .284 2.653z" class="cls-27" transform="translate(8724.645 -3227.286)"/>
            <circle id="Ellipse_815" cx="5.965" cy="5.965" r="5.965" class="cls-27" transform="translate(9520.842 -2999.729)"/>
            <path id="Path_4461" fill="#ea626b" d="M788.2 269.717c-3.079-9.757-4.7 3.948-6.642 7.689.018 2.58.088 9.716.691 12.42 2.344 10.507 13.952 9.682 17.442.821 1.859-4.72-2.265-16.419-2.126-21.877-5.116-5.179-5.431 11.253-9.365.947z" transform="translate(8737.262 -3250.579)"/>
            <path id="Path_4462" d="M763.945 263.538c-6.671 3.243-3.489 11.954-5.907 17.655-1.931 7.822-6.843 10.282 4.387 10.464 2.42-7.15.056-14.916 3.355-22.2.227-2.851 1.205-3.924 1.119-6.338-.646-.998-2.322.109-2.954.419z" class="cls-29" transform="translate(8758.131 -3247.747)"/>
            <path id="Path_4463" d="M628.484 47.656l-4.337-2.272-5.989.929-1.239 5.473 3.081-.119.862-2.011v1.977l1.423-.055.826-3.2.516 3.408 5.06-.1z" class="cls-26" transform="translate(8903.797 -3046.054)"/>
            <path id="Path_4464" d="M834.113 261.993c3.434-.4.086-4.524 2.811-4.454 8.161-1.373 10.6 3.682 7.5 10.737-2.845 5.651 7.219 13.589 1.6 16.751-2 .732-4.852 3.036-6.8 2.033-3.137-7.869-3.25-16.86-5.111-25.067z" class="cls-29" transform="translate(8695.486 -3243.456)"/>
            <path id="Path_4465" d="M869.08 376.574a8.165 8.165 0 0 0-2.942 2.537c-.169.224.058.641.566.634.472-.006.755-.612 1.227-.618a20.505 20.505 0 0 0 .781 3.723 9.331 9.331 0 0 0 2.047-3.125l1.067-2.238c.392-.822.784-1.643 1.137-2.482a1.791 1.791 0 0 0 .175-.626c.046-1.444-1.377-1.452-1.991-.549-.672.989-.881 2.177-2.067 2.744z" class="cls-27" transform="translate(8670.077 -3335.573)"/>
            <path id="Path_4466" d="M875.346 268.643a19.978 19.978 0 0 1 2.54 3.014c.708 1.109 4.373 11.084 4.521 11.3.529.781-.089 2.8-.12 2.915-.061.362-.826 3.981-1.017 4.781-.134.559-.132 1.142-.22 1.71a2.45 2.45 0 0 1-.723 1.526.452.452 0 0 1-.2.111c-.243.047-.408-.233-.493-.466a7.722 7.722 0 0 0-1-2.074 2.545 2.545 0 0 0-1.944-1.091 1.037 1.037 0 0 1 .075-.947c.154-.291.381-.538.551-.82a3.774 3.774 0 0 0 .433-1.239 8.127 8.127 0 0 0-1.073-5.8 5.553 5.553 0 0 0-.9-1.119c-.376-.352-.816-.636-1.164-1.017a3.975 3.975 0 0 1-.926-2.246 11.841 11.841 0 0 1 .065-2.464c.156-1.621.357-3.245.589-4.857a1.81 1.81 0 0 1 .161-.607 1.533 1.533 0 0 1 .845-.61z" class="cls-29" transform="translate(8664.056 -3252.461)"/>
            <path id="Path_4467" d="M777.109 375.41c-.614-.9-2.037-.895-1.991.549a1.79 1.79 0 0 0 .175.626c.353.839.745 1.661 1.137 2.482l1.067 2.238a9.329 9.329 0 0 0 2.047 3.125 20.527 20.527 0 0 0 .781-3.723c.472.006.755.612 1.227.618.508.007.735-.41.566-.634a8.165 8.165 0 0 0-2.942-2.537c-1.186-.568-1.396-1.754-2.067-2.744z" class="cls-27" transform="translate(8742.376 -3336.828)"/>
            <path id="Path_4468" d="M766.364 270.83a1.813 1.813 0 0 1 .161.607c.232 1.612.432 3.236.589 4.857a11.845 11.845 0 0 1 .065 2.464 3.976 3.976 0 0 1-.926 2.246c-.347.381-.787.664-1.164 1.017a5.549 5.549 0 0 0-.9 1.119 8.127 8.127 0 0 0-1.073 5.8 3.771 3.771 0 0 0 .433 1.239c.17.282.4.529.551.82a1.037 1.037 0 0 1 .075.947 2.545 2.545 0 0 0-1.944 1.091 7.72 7.72 0 0 0-1 2.074c-.085.232-.25.513-.493.466a.453.453 0 0 1-.2-.111 2.45 2.45 0 0 1-.723-1.526c-.088-.568-.086-1.151-.22-1.71-.192-.8-.956-4.418-1.017-4.781-.031-.116-.649-2.134-.12-2.915.149-.211 3.813-10.186 4.521-11.3a19.987 19.987 0 0 1 2.54-3.014 1.533 1.533 0 0 1 .845.61z" class="cls-29" transform="translate(8755.78 -3253.715)"/>
        </g>
    </g>
</svg>
