<svg xmlns="http://www.w3.org/2000/svg" id="copyright" width="12" height="12" viewBox="0 0 12 12">
    <defs>
        <style>
            .cls-1{fill:#333e49}
        </style>
    </defs>
    <path id="Path_4198" d="M6 12a6 6 0 1 1 6-6 6.007 6.007 0 0 1-6 6zM6 .75A5.25 5.25 0 1 0 11.25 6 5.256 5.256 0 0 0 6 .75z" class="cls-1"/>
    <path id="Path_4199" d="M113.823 116.823a3 3 0 1 1 2.143-5.1l-.536.524a2.25 2.25 0 1 0 0 3.149l.535.525a2.976 2.976 0 0 1-2.142.902z" class="cls-1" transform="translate(-107.823 -107.823)"/>
</svg>
