<svg xmlns="http://www.w3.org/2000/svg" width="22.162" height="18" viewBox="0 0 22.162 18">
    <path fill="#333e49" d="M19.884 7.867c.014.2.014.394.014.591A12.835 12.835 0 0 1 6.975 21.381 12.836 12.836 0 0 1 0 19.342a9.4 9.4 0 0 0 1.1.056 9.1 9.1 0 0 0 5.639-1.941 4.55 4.55 0 0 1-4.247-3.15 5.728 5.728 0 0 0 .858.07 4.8 4.8 0 0 0 1.2-.155A4.543 4.543 0 0 1 .9 9.765v-.056a4.574 4.574 0 0 0 2.053.577A4.549 4.549 0 0 1 1.547 4.21a12.911 12.911 0 0 0 9.366 4.753 5.128 5.128 0 0 1-.113-1.04 4.547 4.547 0 0 1 7.861-3.108 8.943 8.943 0 0 0 2.883-1.1 4.53 4.53 0 0 1-2 2.5 9.106 9.106 0 0 0 2.616-.7 9.764 9.764 0 0 1-2.276 2.352z" transform="translate(0 -3.381)"/>
</svg>
